HIERARCHY
ROOT Hips
{
     OFFSET 1.88212 96.90440 -13.34250
     CHANNELS 6 Xposition Yposition Zposition Zrotation Xrotation Yrotation
     JOINT Spine
     {
          OFFSET 0.00000 11.89050 0.00000
          CHANNELS 3 Zrotation Xrotation Yrotation
          JOINT Spine1
          {
               OFFSET -0.00000 25.65740 0.12766
               CHANNELS 3 Zrotation Xrotation Yrotation
               JOINT HEad
               {
                    OFFSET 0.00000 8.73416 0.01134
                    CHANNELS 3 Zrotation Xrotation Yrotation
                    End Site
                    {
                         OFFSET -0.29000 12.77420 2.51395
                    }
               }
               JOINT LeftShoulder1
               {
                    OFFSET 8.99000 -0.36225 -0.22000
                    CHANNELS 3 Zrotation Xrotation Yrotation
                    JOINT LeftArm
                    {
                         OFFSET 10.28270 -0.00338 0.32212
                         CHANNELS 3 Zrotation Xrotation Yrotation
                         JOINT LeftForeArm
                         {
                              OFFSET 32.76690 0.09914 -1.42434
                              CHANNELS 3 Zrotation Xrotation Yrotation
                              JOINT LeftHand
                              {
                                   OFFSET 27.56430 0.08536 1.02216
                                   CHANNELS 3 Zrotation Xrotation Yrotation
                                   End Site
                                   {
                                        OFFSET 16.74430 -0.60000 1.50291
                                   }
                              }
                         }
                    }
               }
               JOINT RightShoulder
               {
                    OFFSET -8.99000 -0.36225 -0.22000
                    CHANNELS 3 Zrotation Xrotation Yrotation
                    JOINT RightArm
                    {
                         OFFSET -10.28270 -0.00338 0.32212
                         CHANNELS 3 Zrotation Xrotation Yrotation
                         JOINT RightForeArm
                         {
                              OFFSET -32.89710 0.09914 -1.42434
                              CHANNELS 3 Zrotation Xrotation Yrotation
                              JOINT RightHand
                              {
                                   OFFSET -27.49210 0.08536 1.02216
                                   CHANNELS 3 Zrotation Xrotation Yrotation
                                   End Site
                                   {
                                        OFFSET -16.63120 -0.60000 1.50291
                                   }
                              }
                         }
                    }
               }
          }
     }
     JOINT LeftUpLeg
     {
          OFFSET 8.94580 -8.66707 0.10165
          CHANNELS 3 Zrotation Xrotation Yrotation
          JOINT LeftLeg
          {
               OFFSET 0.00000 -44.42270 1.37270
               CHANNELS 3 Zrotation Xrotation Yrotation
               JOINT LeftFoot
               {
                    OFFSET -0.25355 -42.09240 -1.46059
                    CHANNELS 3 Zrotation Xrotation Yrotation
                    JOINT LeftToes
                    {
                         OFFSET -0.04000 -4.41509 8.49910
                         CHANNELS 3 Zrotation Xrotation Yrotation
                         End Site
                         {
                              OFFSET 0.08000 -0.04745 9.77979
                         }
                    }
               }
          }
     }
     JOINT RightUpLeg
     {
          OFFSET -8.94580 -8.66707 0.10165
          CHANNELS 3 Zrotation Xrotation Yrotation
          JOINT RightLeg
          {
               OFFSET 0.00000 -44.42270 1.37270
               CHANNELS 3 Zrotation Xrotation Yrotation
               JOINT RightFoot
               {
                    OFFSET 0.25355 -42.09240 -1.46059
                    CHANNELS 3 Zrotation Xrotation Yrotation
                    JOINT RightToes
                    {
                         OFFSET 0.04000 -4.41509 8.49910
                         CHANNELS 3 Zrotation Xrotation Yrotation
                         End Site
                         {
                              OFFSET -0.08000 -0.13745 9.77979
                         }
                    }
               }
          }
     }
}
MOTION
Frames: 8
Frame Time: 0.01667
43.59686 82.94618 -121.70288 0.62568 -6.54696 -29.59792 -6.87924 27.31308 2.70271 -0.04093 0.09659 0.02191 -11.97867 5.61983 16.88252 -21.92381 33.16636 10.65856 -109.14918 -62.07888 -85.68738 -48.47204 55.18103 -84.19201 2.32463 4.49803 4.80825 -17.68601 39.16246 16.29261 86.40727 -27.51386 87.07497 45.95971 50.24238 79.53278 -8.31527 18.03346 11.62045 8.53848 -21.83768 13.62019 33.86348 26.19633 -16.57314 -0.05512 -0.11454 0.08383 -27.08600 -19.11077 7.54763 -17.73253 -28.62042 -17.99427 -28.05309 48.29976 46.56565 30.41416 0.07926 0.15910 -26.70160 -28.23704 -3.26367 
43.97635 79.55808 -122.15440 0.57893 -5.31894 -26.18952 -7.79516 31.37754 1.00127 -0.03803 0.08536 0.01472 -12.17399 3.62649 17.11963 -20.30265 30.10000 8.79243 -105.90097 -61.38555 -80.41149 -43.94537 55.68832 -88.05388 8.79239 2.80647 1.38294 -14.01540 35.69242 15.06982 76.19293 -24.93370 76.35168 35.88249 47.01127 90.43743 -0.58103 1.87702 0.07629 8.99510 -28.03220 10.41888 36.30733 32.11846 -17.30008 3.56592 -0.09276 0.08066 -34.98522 -13.42164 -0.03359 -19.84853 -33.40556 -21.07253 -38.55898 55.17849 54.72885 36.21822 0.14213 0.22137 -32.13924 -34.42098 -2.80584 
44.45072 75.28767 -122.81235 1.06897 -4.04520 -21.15014 -8.57346 35.91710 -1.55528 -0.03479 0.07285 0.01415 -12.79632 1.39753 17.30746 -29.19658 33.25648 14.90738 -106.85957 -55.60110 -91.35136 -40.49191 55.66226 -90.72934 3.16249 7.15068 -0.16757 -9.19116 32.02811 13.44842 69.71095 -22.39651 70.09389 29.61910 44.04530 96.91063 -4.79762 11.50901 4.04426 7.54729 -36.47214 5.49320 40.64230 38.89902 -20.88820 6.43925 -0.05995 0.06186 -40.13341 -17.61367 -1.72354 -24.38178 -38.54337 -25.55374 -51.57879 62.15418 65.63943 41.94970 0.15003 0.16768 -38.21745 -39.71860 -2.92114 
44.92036 70.81383 -123.66281 1.50528 -3.09740 -16.67699 -10.11740 41.07230 -2.41203 -0.03432 0.06281 0.00913 -13.89917 -0.99804 17.35633 -24.10502 29.20687 10.66988 -104.53065 -55.38926 -88.08596 -37.89945 55.36284 -92.87921 7.08559 5.62557 -2.28487 -4.01351 27.99369 11.74008 65.84955 -20.35987 66.60186 25.64899 41.85699 101.01415 -1.38732 7.02329 4.41540 5.03621 -45.84010 0.72503 47.50433 46.23755 -28.12358 8.88293 -0.03728 0.05531 -44.98863 -16.92396 -5.64091 -29.88485 -43.74058 -29.08726 -71.33103 68.36376 83.50807 47.85559 0.15831 0.14853 -44.32846 -44.50754 -3.08655 
45.33341 65.93449 -124.65303 1.93773 -2.41183 -12.66539 -12.61319 46.56062 -1.42783 -0.03688 0.05266 0.01162 -15.53845 -3.59387 17.07271 -19.25116 24.90285 7.16048 -102.08715 -54.76773 -85.31365 -35.81385 55.11601 -95.05107 4.35560 8.12070 -2.63851 0.96794 23.67861 10.37313 63.87712 -19.06936 64.89374 24.30190 44.32563 106.24673 -6.86667 13.26999 3.36654 1.16798 -55.71566 -4.32506 57.78704 53.18128 -39.91793 11.19446 -0.02243 0.05449 -49.54051 -18.93689 -8.10676 -36.36628 -48.64181 -31.88497 -100.33900 71.57235 111.08257 54.16228 0.17595 0.12821 -51.11863 -48.75603 -4.71048 
45.62024 61.04774 -125.70930 2.38602 -1.94540 -9.09587 -16.49267 52.06815 1.69293 -0.04002 0.04307 0.00729 -17.72605 -6.49353 16.34627 -14.21997 20.47972 4.01959 -99.99866 -54.04287 -83.03305 -34.27756 54.76427 -97.26012 6.68008 7.34921 -3.60066 5.88283 19.14327 8.86708 62.94580 -18.14533 64.32268 23.10675 45.59740 109.93613 -6.31192 11.74243 1.02296 -3.91553 -65.69021 -9.76453 71.37570 60.15453 -56.11908 15.19755 -0.02909 0.11948 -53.57189 -20.18974 -11.53536 -43.47417 -52.90012 -33.88869 -130.15041 70.23293 140.13225 60.94297 0.18842 0.09700 -58.25285 -52.74034 -6.29024 
45.85044 56.05712 -126.58261 2.86354 -1.68822 -5.92412 -22.47963 57.08251 7.59010 -0.04706 0.01831 0.00432 -19.02988 -8.86672 14.59853 -9.26371 15.94467 1.46412 -97.74758 -53.10875 -80.83072 -33.20462 54.37789 -99.63435 5.23717 8.99380 -3.29515 1.13602 16.72610 16.97368 71.68914 -25.53341 64.95815 21.76947 46.56225 113.27409 4.29695 6.02678 12.39102 -10.31194 -75.33268 -15.88548 89.38605 65.39648 -77.56129 20.55012 -0.01822 0.15804 -57.69348 -21.79714 -14.35806 -50.10413 -56.32591 -34.35213 -147.64775 65.00771 156.75922 69.81651 0.30251 0.02534 -96.20972 -58.29308 -38.03624 
45.96200 51.32362 -127.21628 3.38430 -1.63261 -3.14240 -31.23550 61.05135 16.83969 -0.04865 0.00453 0.00455 -19.47292 -10.60912 12.13666 -4.11051 11.58431 -0.75884 -95.92317 -52.04919 -79.05691 -32.66683 53.87654 -101.89077 6.50859 8.64310 -3.18039 7.73505 12.45121 13.18159 68.71673 -22.46438 67.55238 22.46471 44.32390 112.70899 -5.79341 11.92020 0.90340 -20.55507 -83.88849 -25.38316 107.64507 66.71751 -99.96270 25.34393 -0.00273 0.09060 -60.82823 -22.50546 -16.13252 -55.16526 -58.75355 -32.43641 -159.16037 60.35561 168.15031 78.23724 0.23752 -0.04783 -88.44718 -60.81713 -24.91234 
